<?xml version="1.0" encoding="utf-8" ?>
<svg xmlns="http://www.w3.org/2000/svg" xmlns:xlink="http://www.w3.org/1999/xlink" width="1024" height="1024">
	<path fill="#FEFEFE" d="M0 0L1024 0L1024 1024L0 1024L0 0Z"/>
	<path fill="#5576B9" d="M503.628 147.189L504.397 147.235C504.65 147.605 504.752 147.695 504.863 148.195C506.137 153.918 501.458 168.614 498.449 173.726C493.786 181.649 485.338 187.806 476.419 189.985C464.513 192.892 453.234 190.062 442.99 183.8C438.681 180.734 435.61 177.367 433.062 172.761C450.268 158.674 481.881 150.063 503.628 147.189Z"/>
	<path fill="#D1E1DC" d="M332.014 818.967C330.834 824.653 330.627 829.958 330.953 835.745C311.723 834.762 292.023 835.5 272.745 835.46L147.512 835.492C151.774 830.085 155.581 824.943 158.663 818.74L266.744 818.605C288.47 818.585 310.3 818.232 332.014 818.967Z"/>
	<path fill="#D1E1DC" d="M346.61 778.429L361.576 780.256C355.534 785.536 349.003 789.722 343.432 795.603C337.223 794.97 330.41 795.462 324.139 795.456L285.036 795.419L159.209 795.446C157.29 789.159 154.147 783.917 150.395 778.569C156.888 778.205 163.547 778.466 170.064 778.447L208.681 778.375C254.648 778.346 300.648 778.967 346.61 778.429Z"/>
	<path fill="#5576B9" d="M382.256 250.283C402.032 256.779 428.796 278.038 438.247 296.813C442.766 305.79 443.19 314.443 439.982 323.932C436.161 335.235 430.035 344.32 419.126 349.691C401.654 358.295 376.088 352.921 356.789 353.434C345.505 353.734 334.405 355.557 323.47 358.284C322.157 355.097 321.175 351.83 320.174 348.535C323.624 346.941 327.004 343.885 330.044 341.571C349.682 326.624 363.107 307.115 371.605 284.012C375.687 272.915 379.008 261.647 382.256 250.283Z"/>
	<path fill="#F16F6E" d="M851.662 660.027C856.306 661.686 870.031 660.147 876.027 660.635L878.149 660.508L907.101 660.533C907.073 663.656 906.924 666.821 907.22 669.933C902.888 673.667 899.092 677.122 895.724 681.771C851.985 682.394 808.187 681.517 764.439 681.545L732.043 681.526C725.81 681.501 719.149 681.023 712.96 681.711C709.979 682.042 707.668 682.55 705.475 684.71C702.941 687.207 701.799 690.837 701.781 694.347C701.766 697.143 702.733 699.568 704.77 701.497C707.324 703.915 710.783 704.909 714.201 705.261C720.871 705.95 728.024 705.327 734.757 705.313L774.975 705.317L895.71 705.169C899.878 710.004 905.895 716.877 909.164 722.246C908.768 723.284 909.085 723.024 908.158 723.475C902.163 726.397 880.207 721.693 875.004 724.635C874.615 724.498 874.224 724.366 873.837 724.225C870.403 722.97 867.331 722.398 863.705 722.181C854.319 721.618 844.698 722.094 835.286 722.093L781.831 721.991L732.007 721.989C720.912 721.994 709.765 721.693 698.7 722.579C697.908 721.778 698.147 722.114 697.593 721.211C697.47 721.011 697.354 720.805 697.235 720.602L694.64 720.067C693.086 718.33 690.666 716.84 688.824 715.357C687.389 713.311 685.507 711.439 683.963 709.448C678.752 702.726 676.935 694.967 678.033 686.614Q678.128 685.87 678.26 685.131Q678.391 684.392 678.559 683.661Q678.728 682.93 678.932 682.208Q679.136 681.486 679.376 680.775Q679.616 680.064 679.89 679.366Q680.165 678.667 680.474 677.984Q680.783 677.3 681.126 676.632Q681.469 675.965 681.844 675.315Q682.219 674.665 682.626 674.035Q683.033 673.405 683.471 672.795Q683.909 672.186 684.376 671.599Q684.844 671.012 685.34 670.449Q685.836 669.886 686.359 669.348Q686.883 668.811 687.432 668.3Q687.982 667.789 688.556 667.305Q689.13 666.822 689.727 666.368Q690.832 665.523 692.024 664.806Q693.215 664.088 694.478 663.506Q695.741 662.924 697.061 662.485Q698.381 662.045 699.741 661.754C706.858 660.165 739.373 659.686 746.934 660.819L748.975 660.332C760.405 660.341 773.377 659.498 784.617 660.501L786.839 660.399C798.181 659.802 809.637 660.925 820.929 660.245L822.932 660.723L823.943 660.459L826.037 660.44C833.798 660.325 841.675 660.145 849.426 660.486C850.337 660.507 850.814 660.322 851.662 660.027Z"/>
	<path fill="#F16F6E" d="M192.919 716.429L301.757 716.627L331.118 716.569C337.777 716.547 344.912 716.13 351.489 717.169C357.22 720.965 361.877 724.842 365.876 730.467C369.897 737.667 371.803 746.122 369.525 754.232C366.949 763.398 360.065 771.371 351.782 775.939C350.11 776.861 348.36 777.669 346.61 778.429C300.648 778.967 254.648 778.346 208.681 778.375L170.064 778.447C163.547 778.466 156.888 778.205 150.395 778.569L132.03 778.497C132.033 775.41 132.14 772.316 132.198 769.229C135.852 767.717 138.679 765.733 141.098 762.557C145.157 757.23 146.358 750.431 145.478 743.892C144.369 735.651 140.536 729.803 133.982 724.848L133.929 716.924Q163.428 717.178 192.919 716.429Z"/>
	<path fill="#FEFEFE" d="M334.898 736.741C337.016 736.674 339.25 736.508 341.356 736.711C344.242 736.989 347.247 738.737 348.976 741.048C350.724 743.387 351.208 746.392 350.679 749.225C349.913 753.325 347.428 756.606 344.065 758.925C326.401 759.433 308.579 758.981 290.903 758.992L183.54 758.826L167.321 758.862C167.05 751.574 167.106 744.262 167.065 736.968C222.982 736.227 278.97 737.061 334.898 736.741Z"/>
	<path fill="#0C1114" d="M149.585 419.903C147.873 415.231 146.183 410.626 143.052 406.686C132.29 393.144 114.185 394.133 106.453 374.944C103.948 368.725 102.975 361.813 103.986 355.169C107.485 332.198 130.458 323.795 136.972 303.7C141.762 288.923 136.925 272.725 143.205 258.092C147.809 247.364 157.895 238.738 168.662 234.564C188.572 226.844 208.085 235.651 228.265 234.106C241.999 233.055 254.942 227.34 268.72 227.2C275.045 227.135 281.307 228.192 287.111 230.761C306.784 239.469 314.684 260.418 312.773 280.744C311.75 291.634 308.359 301.81 309.071 312.901C309.885 325.587 315.652 336.883 320.174 348.535C321.175 351.83 322.157 355.097 323.47 358.284L324.53 361.523C328.355 376.648 329.418 391.504 321.131 405.409C314.173 417.082 302.104 424.089 289.16 427.293C278.104 430.03 265.669 429.48 255.795 435.82C249.792 439.675 245.753 445.571 241.908 451.432C231.367 467.498 222.205 479.579 201.558 481.32C193.436 482.005 184.634 480.442 177.642 476.128C159.311 464.818 154.3 440.03 149.591 420.714C124.622 425.946 100.537 432.906 79.2301 447.501L76.0912 449.708C70.0383 454.393 64.2687 459.266 59.2076 465.043C57.5974 466.881 54.8649 471.193 52.7072 471.816C74.8523 440.015 113.431 427.432 149.585 419.903Z"/>
	<path fill="#FEFEFE" d="M264.287 229.688C273.034 228.385 282.976 230.471 290.479 235.088C307.504 245.564 312.868 263.849 310.524 282.942C309.035 295.062 305.547 305.695 307.487 318.099C310.124 334.962 319.808 349.889 323.703 366.467C326.769 379.516 326.204 393.4 318.91 404.996C300.948 433.553 270.172 421.188 251.672 436.367C247.099 440.119 243.934 444.9 240.735 449.805C232.139 462.982 224.036 474.81 207.743 478.391C196.242 480.919 186.02 479.114 176.148 472.769C162.087 462.3 157.076 442.704 152.942 426.587C150.914 418.683 149.268 410.506 143.751 404.168C137.058 396.48 126.668 393.57 118.723 387.453C111.403 381.819 107.013 374.273 105.921 365.083C102.456 335.945 132.151 327.208 139.184 303.437C144.497 285.479 137.287 266.616 150.262 250.599Q151.755 248.79 153.42 247.139Q155.085 245.487 156.906 244.009Q158.727 242.531 160.685 241.24Q162.643 239.95 164.72 238.86C185.186 227.978 206.239 237.072 227.751 236.193C240.264 235.681 251.908 230.99 264.287 229.688Z"/>
	<path fill="#0C1114" d="M215.75 254.097C222.947 253.465 229.33 254.305 235.8 257.706Q237.531 258.611 239.137 259.721Q240.744 260.83 242.202 262.129Q243.661 263.427 244.949 264.895Q246.238 266.362 247.337 267.976C257.793 283.301 248.918 299.952 253.848 316.283C256.496 325.054 265.138 330.187 267.588 338.723C268.403 341.562 268.458 344.351 267.841 347.23C265.697 357.237 258.728 371.324 254.749 381.267C249.707 393.864 245.831 407.493 238.988 419.231C235.11 425.883 230.634 430.265 223.023 432.266C218.912 432.796 215.528 432.626 211.961 430.297C208.007 427.715 205.119 423.658 202.631 419.712C198.408 413.013 195.568 405.499 191.922 398.483C187.033 389.077 173.744 367.936 171.9 358.791C168.674 342.79 183.931 334.632 188.477 321.502C194.537 303.997 180.697 286.928 193.365 267.941C198.696 259.951 206.581 256.005 215.75 254.097Z"/>
	<path fill="#F16F6E" d="M216.237 256.09C222.255 255.516 228.095 256.3 233.569 258.931Q235.268 259.744 236.851 260.765Q238.435 261.786 239.877 262.999Q241.318 264.211 242.596 265.595Q243.874 266.98 244.967 268.514C255.615 283.423 246.599 300.454 251.562 316.524C254.275 325.308 262.798 330.657 265.482 339.188C266.294 341.77 266.462 344.379 265.812 347.012C263.624 355.886 259.027 364.717 255.672 373.267C250.212 387.186 245.642 402.274 238.638 415.45C234.405 423.416 229.974 428.331 221.12 431.03C220.678 425.116 221.02 418.944 221.001 412.997L220.872 376.498C229.399 365.28 241.296 356 248.928 344.212C239.98 349.258 228.53 364.913 220.852 372.864L220.865 310C220.84 300.898 221.442 291.29 220.619 282.271C220.527 281.262 220.259 280.648 219.749 279.794C218.928 280.744 218.716 280.992 218.571 282.285C218.168 285.887 218.483 289.793 218.491 293.436L218.504 314.257C218.502 333.962 217.814 353.97 218.856 373.642C216.539 370.742 213.924 368.013 211.395 365.294C208.232 361.895 194.48 346.205 191.454 346.098C191.883 348.825 214.847 372.016 218.581 376.487Q218.604 403.752 219.002 431.015C217.408 430.493 215.824 429.965 214.368 429.12C210.833 427.067 207.781 423.834 205.506 420.458C200.351 412.805 197.028 403.866 192.764 395.693C188.461 387.445 175.775 366.705 173.974 359.291C173.467 357.2 173.731 354.871 173.99 352.757C175.652 339.218 188.201 332.45 191.125 319.754C195.095 302.517 183.867 285.814 195.083 269.165C200.046 261.797 207.75 257.855 216.237 256.09Z"/>
	<path fill="#0C1114" d="M675.821 269.338Q676.586 268.055 677.382 266.79Q678.178 265.526 679.005 264.282Q679.832 263.037 680.688 261.813Q681.545 260.589 682.431 259.386Q683.317 258.183 684.232 257.002Q685.148 255.821 686.091 254.663Q687.035 253.505 688.006 252.37Q688.978 251.235 689.977 250.123Q690.976 249.012 692.001 247.926Q693.027 246.839 694.078 245.778Q695.13 244.717 696.207 243.682Q697.285 242.647 698.387 241.638Q699.489 240.629 700.615 239.647Q701.741 238.666 702.891 237.712Q704.041 236.758 705.214 235.832Q706.386 234.906 707.581 234.009Q708.776 233.112 709.992 232.245Q711.209 231.377 712.446 230.539Q713.683 229.701 714.94 228.894Q716.197 228.087 717.473 227.31Q718.75 226.533 720.044 225.788Q721.339 225.043 722.652 224.329Q723.965 223.615 725.294 222.934Q726.624 222.253 727.969 221.604Q729.315 220.955 730.676 220.339Q732.037 219.723 733.413 219.14Q734.789 218.557 736.178 218.008Q737.568 217.459 738.97 216.944Q740.373 216.429 741.787 215.948Q743.202 215.467 744.628 215.021Q746.054 214.574 747.49 214.163Q748.926 213.751 750.372 213.375Q751.695 213.038 753.026 212.734Q754.357 212.43 755.695 212.159Q757.033 211.888 758.378 211.649Q759.722 211.411 761.072 211.206Q762.421 211.001 763.776 210.829Q765.13 210.657 766.488 210.518Q767.847 210.38 769.208 210.275Q770.569 210.169 771.932 210.098Q773.296 210.026 774.661 209.988Q776.025 209.95 777.391 209.945Q778.756 209.941 780.121 209.97Q781.486 209.999 782.85 210.061Q784.214 210.124 785.575 210.22Q786.937 210.316 788.296 210.445Q789.656 210.575 791.011 210.737Q792.367 210.9 793.718 211.096Q795.069 211.293 796.415 211.522Q797.761 211.751 799.1 212.013Q800.44 212.276 801.773 212.571Q803.106 212.866 804.432 213.194Q805.757 213.521 807.074 213.882Q808.391 214.242 809.698 214.634Q811.006 215.027 812.304 215.452Q813.601 215.876 814.888 216.332Q816.175 216.789 817.45 217.277Q818.725 217.764 819.988 218.283Q821.251 218.802 822.5 219.352Q823.75 219.902 824.986 220.483Q826.221 221.063 827.442 221.674Q828.664 222.284 829.869 222.925Q831.075 223.565 832.265 224.235Q833.454 224.905 834.627 225.604C851.899 235.984 867.309 251.363 877.317 268.868C893.174 270.409 905.671 274.685 916.179 287.339C930.227 304.257 931.759 327.308 929.722 348.312C926.507 381.459 912.539 405.596 890.108 429.341C904.999 439.216 918.827 448.817 932.043 460.925C935.091 463.717 938.869 466.894 941.183 470.28C945.047 473.742 948.464 478.129 951.74 482.153C968.998 503.351 980.212 529.083 981.67 556.579C983.139 584.264 974.061 610.304 955.316 630.824C942.371 644.994 923.286 659.334 907.22 669.933C906.924 666.821 907.073 663.656 907.101 660.533L878.149 660.508L876.027 660.635C870.031 660.147 856.306 661.686 851.662 660.027C850.814 660.322 850.337 660.507 849.426 660.486C841.675 660.145 833.798 660.325 826.037 660.44L823.943 660.459L822.932 660.723L820.929 660.245C809.637 660.925 798.181 659.802 786.839 660.399L784.617 660.501C773.377 659.498 760.405 660.341 748.975 660.332L746.934 660.819C746.071 650.218 746.741 639.07 746.732 628.422L746.552 567.608L746.482 564.747C746.655 553.997 746.532 543.227 746.547 532.475C746.57 515.018 745.9 497.654 755.172 482.095C736.348 481.135 722.894 471.123 707.925 461.344L705.953 459.811C703.126 456.095 699.621 452.779 696.719 449.062C684.232 433.065 678.926 417.651 676.351 397.727C672.466 394.837 668.004 392.563 663.987 389.822C652.151 381.747 641.507 370.946 635.057 358.048C627.343 342.619 625.847 325.316 631.492 308.977C637.199 292.458 649.968 280.395 665.353 272.843C668.802 271.461 672.249 270.357 675.821 269.338Z"/>
	<path fill="#D1E1DC" d="M748.975 660.332L749.012 557.281C749.005 541.437 747.615 515.347 750.528 500.586C752.391 491.143 756.28 482.238 763.243 475.427C769.3 469.502 777.225 465.896 785.777 466.116C793.693 466.321 800.711 469.758 806.069 475.501C813.844 483.835 817.996 495.726 819.835 506.788C821.16 514.754 820.628 522.863 820.54 530.9L820.422 559.049L820.929 660.245C809.637 660.925 798.181 659.802 786.839 660.399L784.617 660.501C773.377 659.498 760.405 660.341 748.975 660.332Z"/>
	<path fill="#0C1114" d="M784.526 588.202C784.535 578.663 783.719 520.474 785.34 516.552L785.964 516.608C786.613 517.748 786.93 518.716 787.037 520.034C787.587 526.785 786.985 534.018 786.984 540.826L787.004 587.082C789.683 584.238 808.782 563.514 810.455 562.834L811.427 562.983C811.709 563.825 811.898 564.213 811.485 565.092C810.664 566.841 790.269 586.51 786.947 590.409C786.928 613.722 787.252 637.093 786.839 660.399L784.617 660.501L784.529 590.795C779.325 586.107 761.974 569.518 759.17 564.721L759.202 563.898C760.751 563.785 761.666 564.656 762.795 565.64C770.307 572.181 777.809 580.759 784.526 588.202Z"/>
	<path fill="#5576B9" d="M889.534 430.045C897.272 434.792 915.291 446.023 920.981 452.779L923.041 454.802C929.228 458.836 935.733 464.917 940.582 470.52L941.183 470.28C945.047 473.742 948.464 478.129 951.74 482.153C968.998 503.351 980.212 529.083 981.67 556.579C983.139 584.264 974.061 610.304 955.316 630.824C942.371 644.994 923.286 659.334 907.22 669.933C906.924 666.821 907.073 663.656 907.101 660.533L878.149 660.508L876.027 660.635C870.031 660.147 856.306 661.686 851.662 660.027C850.814 660.322 850.337 660.507 849.426 660.486C841.675 660.145 833.798 660.325 826.037 660.44L823.943 660.459L822.932 660.723C823.561 652.696 823.103 644.298 823.083 636.237L822.956 590.301L822.978 540.221C823.005 530.869 823.389 521.341 822.902 512.009C822.079 496.258 815.431 480.679 803.632 470.132C836.462 469.031 866.213 452.173 889.534 430.045Z"/>
	<path fill="#FEFEFE" d="M920.981 452.779L923.041 454.802C918.267 460.826 913.912 467.135 911.315 474.426C906.13 488.981 907.402 506.54 914.097 520.389C923.681 540.216 943.128 548.999 964.302 549.973C968.741 550.178 975.601 548.848 979.657 550.273C979.997 551.452 979.916 551.256 979.54 552.298C977.891 553.334 976.139 553.408 974.236 553.43C954.602 553.657 935.642 550.012 921.221 535.677C910.394 524.916 904.842 509.331 904.908 494.192C904.973 479.074 910.044 463.568 920.981 452.779Z"/>
	<path fill="#0C1114" d="M823.943 660.459Q824.227 616.21 823.994 571.96C823.976 559.656 822.709 537.611 825.062 526.318C826.175 520.973 829.454 515.168 833.358 511.349Q833.817 510.903 834.298 510.481Q834.779 510.059 835.279 509.66Q835.78 509.262 836.3 508.889Q836.82 508.516 837.357 508.169Q837.895 507.822 838.449 507.501Q839.003 507.181 839.572 506.889Q840.141 506.596 840.724 506.332Q841.307 506.068 841.901 505.832Q842.497 505.597 843.103 505.392Q843.708 505.186 844.324 505.01Q844.939 504.835 845.562 504.69Q846.186 504.545 846.815 504.431Q847.445 504.316 848.079 504.233Q848.714 504.15 849.351 504.098Q849.989 504.047 850.629 504.026Q851.268 504.006 851.908 504.017C858.703 504.125 865.432 507.963 870.042 512.818C873.866 516.845 876.325 521.662 877.347 527.126C879.614 539.251 878.412 561.253 878.374 574.111L878.149 660.508L876.027 660.635C875.354 630.461 875.948 600.158 875.982 569.965C875.996 557.783 877.172 541.044 875.261 529.224C874.367 523.697 872.379 518.757 868.563 514.567C864.253 509.835 858 506.731 851.573 506.487C845.191 506.246 839.172 508.893 834.69 513.383C830.979 517.1 827.893 522.995 826.84 528.177C825.866 532.968 826.271 538.508 826.248 543.4L826.2 569.888L826.037 660.44L823.943 660.459Z"/>
	<path fill="#D1E1DC" d="M826.037 660.44L826.2 569.888L826.248 543.4C826.271 538.508 825.866 532.968 826.84 528.177C827.893 522.995 830.979 517.1 834.69 513.383C839.172 508.893 845.191 506.246 851.573 506.487C858 506.731 864.253 509.835 868.563 514.567C872.379 518.757 874.367 523.697 875.261 529.224C877.172 541.044 875.996 557.783 875.982 569.965C875.948 600.158 875.354 630.461 876.027 660.635C870.031 660.147 856.306 661.686 851.662 660.027C850.814 660.322 850.337 660.507 849.426 660.486C841.675 660.145 833.798 660.325 826.037 660.44Z"/>
	<path fill="#0C1114" d="M849.383 599.103C849.614 586.476 849.443 573.822 849.396 561.193C849.379 556.537 848.678 551.077 849.425 546.517C849.611 545.382 849.813 545.185 850.63 544.496C852.457 547.179 851.748 590.198 851.812 597.401C856.701 592.163 865.915 580.519 872.099 577.443C871.737 581.602 855.356 596.717 851.479 600.759L851.662 660.027C850.814 660.322 850.337 660.507 849.426 660.486C849.054 641.282 849.192 622.028 849.08 602.819C846.244 599.25 829.901 585.421 829.58 582.953L830.434 582.76C833.734 583.465 845.634 595.712 849.383 599.103Z"/>
	<path fill="#FEFEFE" d="M773.211 212.214C782.481 211.564 792.271 212.529 801.334 214.515C827.413 220.23 850.798 236.372 867.127 257.272C870.499 261.588 873.376 266.336 876.33 270.943C886.15 271.528 894.679 273.244 903.15 278.499C915.761 286.321 923.309 299.627 926.467 313.858C932.882 342.773 925.085 377.829 909.23 402.375C887.387 436.189 848.465 465.233 807.336 467.747C794.539 468.529 792.014 461.746 775.51 465.286C766.904 468.708 762.113 472.879 756.324 480.063C739.942 478.924 724.436 471.476 711.769 461.253C690.767 444.302 681.177 422.606 678.413 396.292C673.297 393.156 668.096 390.086 663.21 386.598C647.024 375.047 634.239 358.611 630.956 338.612Q630.732 337.194 630.577 335.766Q630.422 334.338 630.337 332.905Q630.252 331.471 630.237 330.035Q630.222 328.599 630.277 327.164Q630.332 325.729 630.456 324.299Q630.581 322.868 630.775 321.445Q630.969 320.023 631.233 318.611Q631.496 317.199 631.828 315.802Q632.159 314.405 632.559 313.025Q632.958 311.646 633.424 310.288Q633.89 308.929 634.422 307.595Q634.953 306.261 635.549 304.955Q636.145 303.648 636.804 302.373Q637.463 301.097 638.183 299.854Q638.904 298.612 639.683 297.406Q640.463 296.2 641.301 295.034C649.984 282.963 662.605 274.177 677.402 271.684C680.668 264.77 686.011 258.208 691.032 252.499C712.381 228.221 741.055 214.218 773.211 212.214Z"/>
	<path fill="#0C1114" d="M761.248 272.197C767.622 274.916 776.549 285.47 781.59 290.655L787.236 285.048L791.889 290.289C798.677 284.25 804.616 278.081 812.134 272.803C816.856 283.007 819.935 293.404 822.837 304.222C829.747 300.316 836.92 297.138 844.648 295.268C845.769 304.864 845.202 314.166 844.363 323.743C853.428 323.338 862.157 323.814 871.184 324.627C868.521 333.074 864.174 341.786 858.732 348.786C867.135 351.88 873.99 356.311 881.263 361.452C878.301 365.124 874.356 368.415 870.834 371.569C857.428 383.577 844.817 391.821 826.897 395.012C818.645 396.204 810.404 396.262 802.188 394.736C797.079 393.787 791.908 392.394 786.703 392.178C781.811 391.975 776.004 394.235 771.064 394.904C755.972 396.947 737.878 394.608 723.691 389.08C709.059 383.378 696.677 372.492 690.265 358.027C697.537 354.013 704.391 349.863 712.358 347.309C707.009 340.086 703.025 332.108 698.852 324.177C707.714 322.583 716.876 322.076 725.866 321.946Q724.974 315.151 724.685 308.303Q724.397 301.455 724.714 294.609C733.255 296.759 740.813 299.653 748.618 303.744C751.014 292.85 755.644 281.816 761.248 272.197Z"/>
	<path fill="#F16F6E" d="M722.402 324.227C723.693 324.149 724.713 324.196 726.002 324.428C728.162 327.1 730.828 339.661 732.602 343.92C729.132 343.908 715.591 346.335 714.206 345.687C709.195 340.097 705.784 332.765 702.371 326.117C709.051 324.848 715.627 324.475 722.402 324.227Z"/>
	<path fill="#F16F6E" d="M844.365 325.741C852.415 325.608 860.291 325.912 868.305 326.607C867.14 329.589 865.845 332.552 864.497 335.457C862.943 338.802 859.207 346.85 855.538 348.178C847.825 346.532 841.015 347.757 833.599 350.027C836.761 345.014 839.305 340.331 841.314 334.732C842.374 331.779 842.933 328.528 844.365 325.741Z"/>
	<path fill="#F16F6E" d="M810.738 276.363L811.314 276.588C815.44 281.386 819.173 298.756 820.854 305.696C817.454 308.457 809.313 316.804 806.591 318.244L806.017 317.396C803.42 308.031 798.886 299.739 793.325 291.83C798.024 285.774 804.754 281.081 810.738 276.363Z"/>
	<path fill="#F16F6E" d="M762.122 274.758C768.424 280.081 774.991 285.721 779.625 292.609C773.874 300.655 770.265 308.334 767.594 317.853C766.648 317.738 753.487 306.605 750.144 304.39C752.84 294.332 756.86 283.74 762.122 274.758Z"/>
	<path fill="#F16F6E" d="M841.287 298.457L842.244 298.536L842.898 299.446C843.319 303.402 843.159 307.499 843.108 311.473C842.894 328.084 838.804 336.917 830.756 351.062C819.943 355.457 811.267 362.96 803.168 371.172L802.665 371.273C802.35 369.032 806.942 355.662 807.536 351.586C809.024 341.385 808.51 331.69 807.255 321.524C816.476 309.89 827.611 303.549 841.287 298.457Z"/>
	<path fill="#F16F6E" d="M726.557 297.735C742.622 300.552 755.548 309.79 766.932 320.97C763.945 338.541 765.342 356.213 773.426 372.252L773.166 372.694C761.54 360.213 750.987 351.484 735.29 344.635C728.011 330.266 726.658 313.592 726.557 297.735Z"/>
	<path fill="#F16F6E" d="M844.245 349.649C858.429 348.721 866.667 353.851 877.835 361.904C860.111 377.999 848.437 389.727 823.623 393.413C811.476 394.263 799.896 392.946 788.31 389.139C803.196 372.549 821.093 352.918 844.245 349.649Z"/>
	<path fill="#F16F6E" d="M726.835 346.175C728.454 346.089 730.158 345.945 731.772 346.115C749.309 347.959 774.133 376.246 785.02 389.865C774.804 393.418 762.56 393.78 751.876 392.986C744.482 392.79 736.541 391.114 729.531 388.873C713.468 383.738 700.927 374.361 693.194 359.207C703.267 352.708 714.83 347.49 726.835 346.175Z"/>
	<path fill="#F16F6E" d="M786.809 288.365C787.515 288.613 787.411 288.49 787.889 288.914C800.114 299.759 806.282 321.2 806.551 337.013C806.896 357.25 800.983 373.111 787.045 387.618C786.861 387.463 786.664 387.323 786.494 387.152C772.795 373.32 766.704 352.596 767.567 333.505C768.324 316.749 774.214 299.806 786.809 288.365Z"/>
	<path fill="#0C1114" d="M542.27 536.963C542.516 542.341 541.473 549.843 542.843 554.917C544.576 554.011 552.799 557.076 555.271 557.848C580.903 565.854 598.837 585.432 611.054 608.718C622.88 631.257 628.197 657.202 630.154 682.426C630.926 692.378 630.82 713.847 634.742 722.362C652.685 719.813 671.022 718.677 688.824 715.357C690.666 716.84 693.086 718.33 694.64 720.067L697.235 720.602C697.354 720.805 697.47 721.011 697.593 721.211C698.147 722.114 697.908 721.778 698.7 722.579C709.765 721.693 720.912 721.994 732.007 721.989L781.831 721.991L835.286 722.093C844.698 722.094 854.319 721.618 863.705 722.181C867.331 722.398 870.403 722.97 873.837 724.225C874.224 724.366 874.615 724.498 875.004 724.635Q875.525 724.955 876.029 725.301Q876.534 725.647 877.021 726.018Q877.507 726.388 877.975 726.783Q878.443 727.177 878.89 727.594Q879.338 728.011 879.764 728.45Q880.19 728.888 880.594 729.348Q880.998 729.807 881.378 730.286Q881.759 730.765 882.116 731.262Q882.472 731.759 882.803 732.273Q883.134 732.788 883.44 733.318Q883.745 733.848 884.024 734.392Q884.302 734.937 884.554 735.495Q884.805 736.052 885.028 736.622Q885.251 737.191 885.446 737.771Q885.641 738.351 885.806 738.94Q885.972 739.529 886.108 740.125C888.004 748.627 887.172 762.479 882.322 769.728C880.339 772.691 877.824 774.992 874.907 777.011L908.498 777.476L908.614 811.509C908.69 818.928 909.174 826.517 908.777 833.919L781.784 833.918L746.221 833.957C739.816 833.972 732.699 834.638 726.407 833.494C722.11 832.712 718.624 829.921 715.338 827.22C714.62 843.485 712.295 857.175 699.759 868.757C688.023 879.6 671.779 881.029 656.507 880.306C633.256 879.206 610.004 877.405 586.744 876.569C573.736 876.101 559.224 878.121 546.544 875.052C538.658 873.143 531.487 869.39 526.013 863.373Q525.528 862.839 525.049 862.3C516.069 872.352 505.767 875.643 492.46 876.437C481.33 877.101 470.142 876.011 459.001 876.552L407.25 879.508C395.332 880.182 381.975 881.987 370.213 879.903Q368.576 879.606 366.964 879.197Q365.351 878.788 363.771 878.269Q362.191 877.75 360.65 877.122Q359.11 876.495 357.616 875.763Q356.122 875.03 354.683 874.197Q353.243 873.363 351.865 872.432Q350.487 871.501 349.176 870.476Q347.865 869.452 346.628 868.34C337.107 859.883 332.462 848.137 330.953 835.745C330.627 829.958 330.834 824.653 332.014 818.967C334.197 810.298 337.82 802.564 343.432 795.603C349.003 789.722 355.534 785.536 361.576 780.256L346.61 778.429C348.36 777.669 350.11 776.861 351.782 775.939C360.065 771.371 366.949 763.398 369.525 754.232C371.803 746.122 369.897 737.667 365.876 730.467C371.541 730.468 397.263 729.565 400.897 731.502C412.939 716.255 409.337 688.896 412.652 670.151C415.312 655.115 419.907 640.053 425.582 625.888C436.955 597.502 454.747 571.355 483.871 559.059C486.68 557.872 493.359 554.812 496.231 555.964C496.985 551.103 495.215 544.472 497.103 540.074C497.901 540.942 498.736 541.748 499.605 542.543C505.069 547.547 512.155 551.188 519.747 550.713C529.43 550.106 536.19 543.818 542.27 536.963Z"/>
	<path fill="#FEFEFE" d="M365.876 730.467C371.541 730.468 397.263 729.565 400.897 731.502C393.313 742.244 383.999 751.594 375.783 761.828C371.039 767.737 366.94 774.96 361.576 780.256L346.61 778.429C348.36 777.669 350.11 776.861 351.782 775.939C360.065 771.371 366.949 763.398 369.525 754.232C371.803 746.122 369.897 737.667 365.876 730.467Z"/>
	<path fill="#FEFEFE" d="M402.068 800.38C459.036 801.057 516.068 800.606 573.042 800.543L626.689 800.562C631.99 800.589 637.368 800.264 642.65 800.419C644.092 800.461 645.42 800.498 646.662 801.301C646.848 802.467 646.773 802.582 646.273 803.664L645.125 803.939L397.679 803.915L402.068 800.38Z"/>
	<path fill="#FEFEFE" d="M542.27 536.963C542.516 542.341 541.473 549.843 542.843 554.917C541.717 559.72 537.975 563.696 533.884 566.281C527.644 570.222 519.621 571.403 512.48 569.638C506.192 568.084 500.754 564.328 497.472 558.701C496.953 557.811 496.586 556.928 496.231 555.964C496.985 551.103 495.215 544.472 497.103 540.074C497.901 540.942 498.736 541.748 499.605 542.543C505.069 547.547 512.155 551.188 519.747 550.713C529.43 550.106 536.19 543.818 542.27 536.963Z"/>
	<path fill="#FEFEFE" d="M489.252 830.628C492.32 830.197 495.646 830.225 498.73 830.507C507.489 831.308 518.788 834.517 524.594 841.473C524.637 847.903 524.996 854.578 523.857 860.918C523.704 861.147 523.555 861.378 523.398 861.603C517.668 869.813 506.709 872.453 497.463 873.869C486.24 875.065 474.598 874.377 463.324 874.324Q462.561 871.704 462.023 869.028C460.271 860.448 461.135 851.02 466.206 843.661C471.822 835.511 479.925 832.289 489.252 830.628Z"/>
	<path fill="#FEFEFE" d="M552.986 831.182Q554.759 830.956 556.545 830.896Q558.331 830.836 560.116 830.942Q561.9 831.048 563.666 831.32Q565.433 831.592 567.166 832.027C575.231 834.135 582.887 839.285 587.022 846.619C591.904 855.277 591.48 864.787 589.009 874.089Q576.956 874.52 564.896 874.54C561.035 874.585 557.158 874.504 553.321 874.036C542.576 872.726 533.278 869.015 526.516 860.298C526.56 854.421 525.198 844.669 528.728 839.82C532.866 834.138 546.445 832.031 552.986 831.182Z"/>
	<path fill="#FEFEFE" d="M688.824 715.357C690.666 716.84 693.086 718.33 694.64 720.067C694.325 740.168 694.233 760.403 694.653 780.502C702.911 780.54 711.286 780.295 719.523 780.82C710.428 790.424 709.952 795.485 710.175 808.394C701.624 793.897 692.911 787.071 681.039 776.014C665.23 761.29 644.339 741.628 634.742 722.362C652.685 719.813 671.022 718.677 688.824 715.357Z"/>
	<path fill="#FEFEFE" d="M593.133 587.748C597.61 590.421 603.189 600.497 605.781 605.056C619.319 628.865 625.461 656.477 627.391 683.588C628.357 697.163 627.557 713.17 633.156 725.736C640.262 741.688 666.048 766.451 679.472 778.637C673.844 777.473 669.107 777.572 663.385 778.076C651.299 779.847 644.35 786.607 637.088 795.883Q621.103 780.484 605.524 764.674C601.874 760.927 595.466 755.062 593.971 749.979C591.615 741.966 593.02 700.617 593.051 689.595C593.145 655.653 592.707 621.684 593.133 587.748Z"/>
	<path fill="#FEFEFE" d="M449.249 588.331C449.327 588.553 449.44 588.766 449.484 588.997C450.171 592.642 449.549 597.29 449.516 601.061L449.319 630.841L449.315 700.598C449.346 714.269 449.842 728.113 449.271 741.767C449.125 745.239 449.083 750.919 447.137 753.895C446.996 754.111 446.844 754.318 446.699 754.531C441.625 761.993 434.793 768.485 428.599 775.027C421.592 782.428 414.604 790.153 407.047 796.992C399.425 788.757 392.999 781.607 381.599 779.122C375.431 778.143 370.241 779.01 364.215 780.384C368.986 774.835 373.261 768.822 377.989 763.218C386.55 753.072 401.819 737.689 407.311 725.979C413.364 713.074 412.706 693.875 413.953 679.664C416.54 650.195 430.719 611.091 449.249 588.331Z"/>
	<path fill="#FEFEFE" d="M752.224 725.75L828.952 726.001C839.392 726.006 858.967 724.981 868.558 726.557C871.549 727.048 874.532 729.024 876.699 731.084C880.964 735.139 882.369 740.433 882.458 746.155C882.586 754.46 883.246 764.311 876.821 770.605C874.136 773.235 870.62 774.943 866.967 775.735C858.58 777.553 837.449 776.425 827.725 776.41Q762.757 776.247 697.792 776.813L697.656 725.92C715.777 725.273 734.085 725.759 752.224 725.75Z"/>
	<path fill="#FEFEFE" d="M730.625 781.202C750.743 780.18 771.317 780.998 791.476 781L905.244 781.086C905.776 797.397 905.431 813.82 905.358 830.14L889.642 830.139L784.153 830.374L750.37 830.441C744.101 830.452 737.694 830.74 731.448 830.309C728.441 830.101 725.479 829.732 722.874 828.107C718.645 825.47 716.137 821.25 715.111 816.438C713.506 808.909 713.281 795.135 717.68 788.713C720.728 784.263 725.467 782.133 730.625 781.202Z"/>
	<path fill="#5576B9" d="M508.025 146.602C521.903 144.812 536.184 144.009 550.165 144.822C582.331 146.693 608.874 154.972 628.64 181.824Q631.155 185.196 633.412 188.746Q635.669 192.297 637.656 196.005Q639.642 199.714 641.346 203.561Q643.05 207.407 644.462 211.37C649.425 225.138 651.915 239.562 656.484 253.427C658.041 258.153 661.346 268.95 664.867 272.447C665.016 272.594 665.191 272.711 665.353 272.843C649.968 280.395 637.199 292.458 631.492 308.977C625.847 325.316 627.343 342.619 635.057 358.048C641.507 370.946 652.151 381.747 663.987 389.822C668.004 392.563 672.466 394.837 676.351 397.727C678.926 417.651 684.232 433.065 696.719 449.062C699.621 452.779 703.126 456.095 705.953 459.811L707.925 461.344C722.894 471.123 736.348 481.135 755.172 482.095C745.9 497.654 746.57 515.018 746.547 532.475C746.532 543.227 746.655 553.997 746.482 564.747L746.552 567.608L746.732 628.422C746.741 639.07 746.071 650.218 746.934 660.819C739.373 659.686 706.858 660.165 699.741 661.754Q698.381 662.045 697.061 662.484Q695.741 662.924 694.478 663.506Q693.215 664.088 692.023 664.806Q690.832 665.523 689.727 666.368Q689.13 666.822 688.556 667.305Q687.982 667.789 687.432 668.3Q686.883 668.811 686.359 669.348Q685.836 669.886 685.34 670.449Q684.844 671.012 684.376 671.599Q683.909 672.186 683.471 672.795Q683.033 673.405 682.626 674.035Q682.219 674.665 681.844 675.315Q681.469 675.965 681.126 676.632Q680.783 677.3 680.474 677.984Q680.165 678.667 679.89 679.366Q679.616 680.064 679.376 680.775Q679.136 681.486 678.932 682.208Q678.728 682.93 678.559 683.661Q678.391 684.392 678.26 685.131Q678.128 685.87 678.033 686.614C676.935 694.967 678.752 702.726 683.963 709.448C685.507 711.439 687.389 713.311 688.824 715.357C671.022 718.677 652.685 719.813 634.742 722.362C630.82 713.847 630.926 692.378 630.154 682.426C628.197 657.202 622.88 631.257 611.054 608.718C598.837 585.432 580.903 565.854 555.271 557.848C552.799 557.076 544.576 554.011 542.843 554.917C541.473 549.843 542.516 542.341 542.27 536.963C536.19 543.818 529.43 550.106 519.747 550.713C512.155 551.188 505.069 547.547 499.605 542.543C498.736 541.748 497.901 540.942 497.103 540.074C495.215 544.472 496.985 551.103 496.231 555.964C493.359 554.812 486.68 557.872 483.871 559.059C454.747 571.355 436.955 597.502 425.582 625.888C419.907 640.053 415.312 655.115 412.652 670.151C409.337 688.896 412.939 716.255 400.897 731.502C397.263 729.565 371.541 730.468 365.876 730.467C361.877 724.842 357.22 720.965 351.489 717.169C344.912 716.13 337.777 716.547 331.118 716.569L301.757 716.627L192.919 716.429Q163.428 717.178 133.929 716.924L133.982 724.848C127.083 720.382 120.567 714.712 114.307 709.402C68.6767 670.697 36.4496 612.328 31.7176 552.353C29.8712 528.95 33.9288 504.716 45.0003 483.917C47.2042 479.777 49.6446 475.392 52.7072 471.816C54.8649 471.193 57.5974 466.881 59.2076 465.043C64.2687 459.266 70.0383 454.393 76.0912 449.708L79.2301 447.501C100.537 432.906 124.622 425.946 149.591 420.714C154.3 440.03 159.311 464.818 177.642 476.128C184.634 480.442 193.436 482.005 201.558 481.32C222.205 479.579 231.367 467.498 241.908 451.432C245.753 445.571 249.792 439.675 255.795 435.82C265.669 429.48 278.104 430.03 289.16 427.293C302.104 424.089 314.173 417.082 321.131 405.409C329.418 391.504 328.355 376.648 324.53 361.523C337.336 356.794 352.909 355.675 366.506 356.127C383.479 356.692 401.497 360.146 417.675 353.291C429.972 348.081 437.18 338.493 441.973 326.327C445.898 316.362 446.01 307.606 441.611 297.76C431.774 275.746 404.975 255.967 383.038 247.547C392.931 217.763 405.426 194.812 430.222 174.659C431.506 176.447 432.784 178.28 434.261 179.915C441.949 188.424 453.376 193.585 464.8 194.067Q465.823 194.118 466.848 194.116Q467.872 194.114 468.895 194.06Q469.918 194.007 470.937 193.901Q471.956 193.795 472.968 193.637Q473.98 193.479 474.983 193.27Q475.986 193.061 476.977 192.801Q477.968 192.542 478.945 192.231Q479.921 191.921 480.88 191.562Q481.84 191.203 482.779 190.795Q483.719 190.387 484.637 189.932Q485.555 189.477 486.448 188.976Q487.342 188.474 488.208 187.928Q489.075 187.382 489.913 186.793Q490.751 186.203 491.557 185.571Q492.364 184.94 493.137 184.268Q493.911 183.596 494.649 182.886C504.733 173.374 507.678 159.999 508.025 146.602Z"/>
	<path fill="#FEFEFE" d="M553.953 215.304C554.161 215.409 554.38 215.494 554.577 215.618C556.225 216.652 560.962 247.416 562.035 252.134C566.206 248.941 584.751 232.978 587.968 232.786L588.55 233.583C586.107 238.639 569.007 249.344 563.716 255.083L563.78 256.094C568.723 260.87 576.499 264.936 582.954 267.217C585.827 268.233 588.76 268.65 591.559 269.9L591.991 271.037C591.472 271.762 591.692 271.785 590.913 271.894C585.454 272.659 572.481 265.997 567.732 262.864C562.104 259.15 559.46 254.847 558.108 248.321C557.146 243.681 552.181 218.013 553.953 215.304Z"/>
	<path fill="#FEFEFE" d="M273.992 477.728C276.051 478.687 280.783 487.132 282.561 489.442C286.351 494.364 290.51 499.188 295.258 503.212C300.111 497.895 302.905 491.257 304.046 484.211C304.22 483.138 304.265 480.434 304.735 479.571C304.906 479.259 305.268 479.098 305.534 478.862C306.217 478.931 306.635 478.758 307.056 479.39C308.268 481.202 307.6 484.465 307.264 486.513C305.774 495.589 300.844 503.354 293.454 508.704C285.679 513.897 275.318 516.1 266.114 514.032C264.572 513.685 263.018 513.173 262.151 511.773C262.335 511.192 262.586 510.577 263.291 510.421C265.129 510.016 270.737 511.348 273.115 511.369C280.594 511.432 286.811 508.961 293.071 505.083C286.938 500.085 275.392 488.582 273.294 481.104C272.869 479.589 273.249 479.049 273.992 477.728Z"/>
	<path fill="#FEFEFE" d="M403.058 555.683C405.332 555.418 407.787 554.781 409.72 556.086L409.916 557.109C406.077 559.913 398.031 559.779 393.263 561.013C386.795 562.687 381.554 565.64 376.41 569.844C383.322 576.764 392.894 583.147 398.96 590.395L398.81 591.418L397.959 591.989C393.341 590.981 383.668 580.643 379.755 577.083L374.549 571.837C370.57 577.729 367.979 584.264 367.778 591.417C367.696 594.329 367.831 597.468 366.915 600.253C366.143 601.056 366.176 601.028 365.063 601.118C364.5 600.361 364.28 599.72 364.149 598.801C362.829 589.583 365.948 577.727 371.612 570.346C379.135 560.542 391.395 557.321 403.058 555.683Z"/>
	<path fill="#0C1114" d="M584.311 435.599C586.674 435.662 588.712 435.948 590.841 437.044Q591.396 437.327 591.919 437.666Q592.442 438.006 592.927 438.398Q593.411 438.79 593.852 439.231Q594.292 439.671 594.685 440.156Q595.077 440.64 595.417 441.163Q595.756 441.685 596.039 442.241Q596.322 442.796 596.545 443.378Q596.769 443.96 596.93 444.562Q597.104 445.189 597.213 445.832Q597.322 446.474 597.364 447.124Q597.406 447.773 597.38 448.424Q597.355 449.075 597.263 449.72Q597.171 450.364 597.012 450.996Q596.854 451.628 596.632 452.24Q596.409 452.852 596.125 453.438Q595.84 454.024 595.497 454.577C593.315 458.062 590.153 459.573 586.264 460.449C583.907 460.476 581.919 460.408 579.767 459.355C576.716 457.861 574.566 455.207 573.637 451.951Q573.456 451.327 573.338 450.689Q573.22 450.05 573.166 449.402Q573.113 448.755 573.125 448.106Q573.137 447.456 573.214 446.811Q573.291 446.167 573.432 445.533Q573.573 444.899 573.778 444.282Q573.982 443.665 574.247 443.072Q574.512 442.479 574.835 441.916C577.064 438.108 580.208 436.687 584.311 435.599Z"/>
	<path fill="#FEFEFE" d="M582.448 438.091C584.454 437.955 586.614 437.924 588.541 438.56C591.035 439.383 593.208 441.146 594.388 443.504C595.578 445.88 595.696 448.566 594.839 451.069C593.562 454.797 591.043 456.505 587.672 458.234C585.921 458.562 583.944 458.654 582.221 458.139Q581.74 457.99 581.276 457.793Q580.812 457.595 580.371 457.352Q579.93 457.108 579.516 456.821Q579.102 456.533 578.72 456.205Q578.337 455.877 577.99 455.512Q577.643 455.147 577.335 454.748Q577.026 454.349 576.761 453.921Q576.495 453.493 576.274 453.04Q576.017 452.53 575.815 451.997Q575.613 451.463 575.468 450.911Q575.322 450.359 575.236 449.795Q575.149 449.232 575.122 448.662Q575.094 448.092 575.127 447.522Q575.159 446.952 575.251 446.389Q575.343 445.826 575.493 445.275Q575.643 444.725 575.85 444.193C577.106 440.911 579.361 439.469 582.448 438.091Z"/>
	<path fill="#0C1114" d="M408.53 435.567C411.278 435.249 414.127 435.133 416.736 436.201C420.27 437.648 423.043 440.381 424.409 443.965C425.653 447.229 425.685 450.952 424.206 454.144C422.439 457.96 419.343 459.995 415.548 461.501C412.838 462.12 410.387 461.993 407.744 461.068Q407.128 460.848 406.538 460.567Q405.947 460.286 405.388 459.947Q404.829 459.608 404.306 459.214Q403.784 458.821 403.304 458.377Q402.824 457.933 402.391 457.443Q401.958 456.953 401.576 456.422Q401.195 455.89 400.869 455.324Q400.542 454.757 400.275 454.16Q399.987 453.507 399.766 452.829Q399.546 452.15 399.395 451.453Q399.245 450.755 399.165 450.046Q399.086 449.337 399.079 448.624Q399.072 447.91 399.138 447.2Q399.203 446.489 399.34 445.789Q399.477 445.089 399.684 444.406Q399.892 443.723 400.167 443.065C401.852 439.048 404.668 437.217 408.53 435.567Z"/>
	<path fill="#FEFEFE" d="M408.574 437.582C410.481 437.404 412.441 437.16 414.329 437.601C417.534 438.351 420.418 440.607 421.986 443.49C423.449 446.18 423.827 449.41 422.805 452.316C421.528 455.949 418.922 457.712 415.605 459.35C413.342 459.65 411.237 459.989 408.989 459.371Q408.451 459.222 407.93 459.019Q407.41 458.816 406.913 458.562Q406.416 458.307 405.947 458.003Q405.478 457.7 405.042 457.35Q404.607 457.001 404.209 456.609Q403.811 456.217 403.455 455.787Q403.099 455.356 402.788 454.892Q402.477 454.428 402.215 453.935Q401.955 453.431 401.745 452.903Q401.536 452.376 401.379 451.83Q401.222 451.285 401.119 450.727Q401.017 450.169 400.969 449.603Q400.921 449.038 400.929 448.47Q400.937 447.903 401.001 447.339Q401.064 446.775 401.182 446.22Q401.301 445.665 401.473 445.124C402.69 441.312 405.165 439.392 408.574 437.582Z"/>
	<path fill="#FEFEFE" d="M746.552 567.608Q730.512 567.367 714.471 567.555C693.508 567.696 676.436 568.241 660.457 552.397Q659.527 551.463 658.645 550.485Q657.762 549.507 656.929 548.487Q656.095 547.467 655.313 546.407Q654.53 545.347 653.801 544.25Q653.072 543.153 652.397 542.021Q651.722 540.889 651.104 539.726Q650.486 538.563 649.926 537.37Q649.365 536.178 648.864 534.959Q648.363 533.741 647.923 532.499Q647.482 531.258 647.103 529.996Q646.724 528.734 646.407 527.455Q646.091 526.177 645.838 524.884Q645.584 523.591 645.395 522.287Q645.205 520.983 645.08 519.672Q644.954 518.361 644.894 517.044Q644.833 515.728 644.837 514.411C644.795 499.796 651.287 486.348 661.56 476.138C673.349 464.422 689.655 459.677 705.953 459.811L707.925 461.344C707.688 461.439 707.453 461.539 707.214 461.629C702.96 463.238 696.78 462.814 692.181 463.586Q691.388 463.719 690.6 463.876Q689.812 464.033 689.029 464.213Q688.245 464.393 687.468 464.597Q686.69 464.8 685.919 465.027Q685.148 465.254 684.384 465.503Q683.62 465.753 682.864 466.025Q682.108 466.297 681.36 466.592Q680.612 466.887 679.873 467.203Q679.135 467.52 678.406 467.859Q677.677 468.198 676.958 468.558Q676.24 468.918 675.533 469.3Q674.825 469.682 674.13 470.084Q673.434 470.487 672.751 470.91Q672.067 471.333 671.397 471.776Q670.727 472.219 670.07 472.682Q669.413 473.146 668.77 473.628Q668.127 474.11 667.499 474.612Q666.871 475.113 666.258 475.633Q665.645 476.153 665.048 476.691Q664.451 477.229 663.87 477.785Q663.289 478.34 662.725 478.913Q662.161 479.486 661.615 480.075Q661.068 480.664 660.539 481.269Q660.01 481.875 659.5 482.495Q658.989 483.116 658.497 483.752Q658.006 484.388 657.533 485.038Q657.061 485.688 656.608 486.352Q656.155 487.016 655.722 487.693Q655.289 488.37 654.876 489.06Q654.463 489.749 654.072 490.451Q653.68 491.153 653.309 491.866Q652.938 492.579 652.589 493.303Q652.048 494.414 651.563 495.551Q651.078 496.688 650.651 497.847Q650.224 499.007 649.855 500.186Q649.486 501.366 649.176 502.562Q648.866 503.759 648.617 504.969Q648.367 506.18 648.178 507.401Q647.989 508.622 647.862 509.852Q647.734 511.081 647.668 512.315Q647.602 513.549 647.597 514.785Q647.593 516.021 647.65 517.255Q647.707 518.49 647.826 519.72Q647.945 520.95 648.125 522.173Q648.305 523.396 648.546 524.608Q648.787 525.82 649.088 527.018Q649.389 528.217 649.749 529.399Q650.11 530.581 650.529 531.744C654.801 543.824 663.662 554.31 675.314 559.827Q678.784 561.446 682.46 562.516Q686.136 563.586 689.932 564.083C696.49 564.958 703.386 564.595 709.996 564.579C722.149 564.549 734.336 564.309 746.482 564.747L746.552 567.608Z"/>
	<path fill="#FEFEFE" d="M79.2301 447.501C100.783 469.781 121.094 496.481 120.534 529.058Q120.527 529.974 120.497 530.89Q120.467 531.806 120.414 532.721Q120.361 533.636 120.284 534.55Q120.208 535.463 120.109 536.374Q120.009 537.285 119.887 538.193Q119.764 539.101 119.619 540.006Q119.473 540.911 119.305 541.812Q119.137 542.713 118.945 543.609Q118.754 544.506 118.541 545.397Q118.327 546.288 118.091 547.174Q117.854 548.059 117.596 548.938Q117.337 549.818 117.056 550.69Q116.775 551.562 116.473 552.427Q116.17 553.292 115.845 554.149Q115.52 555.006 115.174 555.855Q114.828 556.704 114.46 557.543Q114.093 558.383 113.704 559.213Q113.315 560.042 112.906 560.862Q112.496 561.682 112.066 562.491Q111.635 563.3 111.185 564.099Q110.734 564.897 110.263 565.683Q109.793 566.469 109.302 567.243Q108.812 568.018 108.302 568.779Q107.792 569.541 107.263 570.289Q106.733 571.037 106.186 571.772Q105.638 572.507 105.071 573.227Q104.505 573.948 103.921 574.654Q103.336 575.36 102.734 576.051Q102.132 576.742 101.513 577.417Q100.894 578.093 100.257 578.752Q99.621 579.412 98.9682 580.055Q98.3154 580.698 97.6465 581.325C83.7877 594.466 64.7036 601.088 45.6315 600.501C43.7644 600.443 42.8584 600.098 41.5529 598.698L41.3212 597.867C42.3659 597.036 57.1641 596.666 59.8735 596.236C90.5374 591.363 113.091 566.765 116.613 536.153C119.525 510.842 108.18 486.854 92.595 467.529C87.499 461.211 81.7658 455.498 76.0912 449.708L79.2301 447.501Z"/>
	<path fill="#0C1114" d="M619.884 392.099C624.609 391.597 628.843 391.967 633.247 393.889Q633.791 394.123 634.321 394.384Q634.852 394.645 635.368 394.934Q635.885 395.222 636.385 395.537Q636.886 395.852 637.37 396.193Q637.853 396.533 638.319 396.898Q638.784 397.263 639.23 397.652Q639.676 398.04 640.101 398.452Q640.526 398.863 640.93 399.295Q641.333 399.728 641.714 400.181Q642.094 400.634 642.45 401.106Q642.807 401.578 643.138 402.068Q643.469 402.558 643.775 403.065Q644.081 403.571 644.359 404.093Q644.638 404.614 644.89 405.15Q645.141 405.685 645.365 406.233Q645.588 406.781 645.783 407.339Q645.98 407.896 646.149 408.462Q646.317 409.028 646.456 409.602Q646.595 410.176 646.705 410.756Q646.814 411.336 646.894 411.921Q646.974 412.506 647.024 413.095Q647.073 413.683 647.093 414.273Q647.112 414.864 647.101 415.454Q647.091 416.044 647.05 416.633Q647.009 417.223 646.938 417.809Q646.866 418.395 646.765 418.977Q646.664 419.559 646.534 420.135Q646.403 420.711 646.243 421.279Q646.083 421.847 645.894 422.407Q645.705 422.966 645.488 423.515Q645.271 424.065 645.026 424.602Q644.78 425.139 644.508 425.663C640.953 432.345 635.418 435.617 628.431 437.743C623.16 438.424 618.047 437.87 613.281 435.361C607.553 432.347 603.476 426.977 601.75 420.774Q601.598 420.242 601.472 419.702Q601.346 419.163 601.247 418.618Q601.148 418.073 601.075 417.524Q601.003 416.975 600.958 416.423Q600.912 415.871 600.894 415.318Q600.876 414.764 600.885 414.211Q600.894 413.657 600.93 413.104Q600.967 412.552 601.03 412.002Q601.094 411.452 601.184 410.905Q601.274 410.359 601.391 409.818Q601.508 409.276 601.652 408.742Q601.795 408.207 601.965 407.679Q602.135 407.152 602.33 406.634Q602.525 406.116 602.746 405.608Q602.966 405.1 603.212 404.603Q603.457 404.107 603.726 403.623C607.329 397.259 613.084 394.043 619.884 392.099Z"/>
	<path fill="#FEFEFE" d="M620.347 394.09C625.068 393.612 629.2 394.028 633.468 396.3Q633.954 396.56 634.427 396.845Q634.899 397.129 635.357 397.437Q635.815 397.745 636.256 398.075Q636.698 398.405 637.123 398.757Q637.547 399.109 637.954 399.482Q638.36 399.854 638.747 400.247Q639.135 400.64 639.502 401.051Q639.869 401.463 640.215 401.892Q640.561 402.322 640.885 402.768Q641.209 403.214 641.51 403.676Q641.812 404.138 642.09 404.614Q642.367 405.091 642.621 405.581Q642.875 406.07 643.104 406.572Q643.332 407.074 643.536 407.587Q643.739 408.099 643.916 408.621Q644.094 409.144 644.245 409.674Q644.393 410.176 644.515 410.686Q644.638 411.195 644.734 411.71Q644.83 412.224 644.9 412.743Q644.969 413.262 645.013 413.784Q645.056 414.306 645.073 414.83Q645.089 415.353 645.079 415.877Q645.069 416.4 645.032 416.923Q644.995 417.445 644.932 417.965Q644.869 418.485 644.779 419.001Q644.689 419.517 644.573 420.027Q644.457 420.538 644.315 421.042Q644.173 421.546 644.006 422.043Q643.839 422.539 643.646 423.026Q643.454 423.513 643.237 423.99Q643.02 424.466 642.779 424.931Q642.537 425.396 642.273 425.848C639.146 431.075 634.235 433.908 628.49 435.411C623.34 436.188 618.454 435.848 613.815 433.278C608.853 430.531 605.224 425.614 603.69 420.189Q603.55 419.702 603.434 419.209Q603.318 418.716 603.227 418.218Q603.137 417.72 603.071 417.218Q603.005 416.716 602.965 416.211Q602.924 415.706 602.909 415.2Q602.894 414.694 602.904 414.188Q602.914 413.682 602.95 413.177Q602.985 412.671 603.046 412.169Q603.107 411.666 603.193 411.167Q603.279 410.668 603.39 410.174Q603.501 409.68 603.637 409.192Q603.772 408.704 603.932 408.224Q604.092 407.743 604.275 407.271Q604.459 406.799 604.666 406.337Q604.873 405.875 605.104 405.424Q605.334 404.973 605.586 404.534C608.904 398.739 614.125 395.838 620.347 394.09Z"/>
	<path fill="#0C1114" d="M356.386 395.647C362.608 395.186 368.292 395.819 373.837 398.891C380.993 402.855 386.853 410.237 388.9 418.173C390.806 425.559 389.167 433.693 385.174 440.125C380.42 447.783 373.414 451.526 364.887 453.591C357.112 454.831 349.755 453.495 343.242 448.981Q342.643 448.569 342.065 448.127Q341.487 447.685 340.932 447.215Q340.377 446.744 339.846 446.247Q339.316 445.749 338.811 445.225Q338.306 444.702 337.828 444.153Q337.35 443.605 336.9 443.033Q336.451 442.461 336.03 441.867Q335.61 441.273 335.22 440.659Q334.83 440.045 334.471 439.412Q334.113 438.779 333.786 438.129Q333.46 437.479 333.167 436.813Q332.874 436.147 332.615 435.468Q332.355 434.788 332.13 434.096Q331.906 433.404 331.716 432.702Q331.526 432 331.372 431.289Q331.218 430.578 331.1 429.86Q330.973 429.141 330.882 428.416Q330.791 427.691 330.736 426.963Q330.682 426.234 330.663 425.504Q330.645 424.774 330.662 424.044Q330.68 423.313 330.734 422.585Q330.789 421.856 330.879 421.132Q330.969 420.407 331.096 419.687Q331.222 418.968 331.384 418.256Q331.546 417.543 331.743 416.84Q331.94 416.137 332.172 415.444Q332.404 414.751 332.67 414.071Q332.936 413.391 333.236 412.724Q333.535 412.058 333.868 411.408Q334.2 410.757 334.564 410.124Q334.929 409.491 335.324 408.877Q335.72 408.263 336.145 407.669C341.147 400.783 348.088 397.034 356.386 395.647Z"/>
	<path fill="#FEFEFE" d="M357.787 397.667C364.059 397.566 369.18 398.427 374.531 401.975C380.655 406.036 385.655 412.993 387.029 420.236C388.364 427.274 386.231 435.176 382.039 440.914C377.68 446.88 371.222 450.415 364.003 451.508C356.562 452.495 349.864 451.26 343.769 446.683Q343.219 446.266 342.691 445.822Q342.163 445.378 341.658 444.908Q341.153 444.438 340.673 443.943Q340.192 443.447 339.738 442.928Q339.283 442.409 338.855 441.868Q338.427 441.327 338.028 440.764Q337.628 440.202 337.257 439.62Q336.887 439.038 336.546 438.438Q336.205 437.838 335.895 437.221Q335.586 436.605 335.308 435.973Q335.029 435.342 334.784 434.697Q334.538 434.052 334.325 433.396Q334.113 432.74 333.934 432.073Q333.754 431.407 333.609 430.732Q333.464 430.058 333.354 429.377Q333.243 428.696 333.167 428.01Q333.082 427.352 333.029 426.69Q332.977 426.029 332.957 425.366Q332.938 424.702 332.951 424.039Q332.964 423.376 333.011 422.714Q333.057 422.052 333.136 421.393Q333.215 420.734 333.327 420.08Q333.438 419.426 333.582 418.778Q333.726 418.13 333.902 417.491Q334.078 416.851 334.286 416.22Q334.493 415.59 334.732 414.971Q334.97 414.352 335.239 413.745Q335.508 413.138 335.807 412.546Q336.105 411.953 336.433 411.376Q336.761 410.799 337.117 410.239Q337.473 409.679 337.856 409.138Q338.239 408.596 338.649 408.074C343.584 401.773 349.99 398.662 357.787 397.667Z"/>
	<path fill="#0C1114" d="M471.219 533.587C476.236 512.461 481.735 461.216 492.455 446.191C497.287 439.419 505.269 435.483 513.378 434.323C522.258 433.053 531.419 435.158 538.589 440.618C542.893 443.896 546.174 448.187 548.516 453.044C555.452 467.425 558.56 487.622 561.671 503.351C563.653 513.366 565.853 523.42 567.291 533.53C559.851 533.933 552.354 533.814 544.904 533.856C543.897 534.825 543.099 535.848 542.27 536.963C536.19 543.818 529.43 550.106 519.747 550.713C512.155 551.188 505.069 547.547 499.605 542.543C498.736 541.748 497.901 540.942 497.103 540.074C495.635 537.838 494.053 535.679 492.497 533.504L471.219 533.587Z"/>
	<path fill="#FEFEFE" d="M516.457 446.225C516.674 446.358 516.915 446.458 517.109 446.623C518.841 448.088 518.114 457.507 518.091 460.005Q532.663 459.935 547.235 460.038C547.401 460.559 547.572 461.078 547.718 461.605C553.347 481.912 554.349 512.387 543.277 531.153C538.265 539.646 531.43 545.804 521.765 548.308C519.647 548.488 517.529 548.544 515.426 548.178C507.657 546.83 501.288 542.15 496.797 535.804C481.754 514.55 486.547 484.181 490.783 460.089L516.043 460.021C515.991 455.575 515.481 450.556 516.457 446.225Z"/>
	<path fill="#5576B9" d="M707.925 461.344C722.894 471.123 736.348 481.135 755.172 482.095C745.9 497.654 746.57 515.018 746.547 532.475C746.532 543.227 746.655 553.997 746.482 564.747C734.336 564.309 722.149 564.549 709.996 564.579C703.386 564.595 696.49 564.958 689.932 564.083Q686.136 563.586 682.46 562.516Q678.784 561.446 675.314 559.827C663.662 554.31 654.801 543.824 650.529 531.744Q650.11 530.581 649.749 529.399Q649.389 528.217 649.088 527.018Q648.787 525.82 648.546 524.608Q648.305 523.396 648.125 522.173Q647.945 520.95 647.826 519.72Q647.707 518.49 647.65 517.255Q647.593 516.021 647.597 514.785Q647.602 513.549 647.668 512.315Q647.734 511.081 647.862 509.852Q647.989 508.622 648.178 507.401Q648.367 506.18 648.617 504.969Q648.866 503.759 649.176 502.562Q649.486 501.366 649.855 500.187Q650.224 499.007 650.651 497.847Q651.078 496.688 651.563 495.551Q652.048 494.414 652.589 493.303Q652.938 492.579 653.309 491.866Q653.68 491.153 654.072 490.451Q654.463 489.749 654.876 489.06Q655.289 488.37 655.722 487.693Q656.155 487.016 656.608 486.352Q657.061 485.688 657.533 485.038Q658.006 484.388 658.498 483.752Q658.989 483.116 659.5 482.495Q660.01 481.875 660.539 481.269Q661.068 480.664 661.615 480.075Q662.161 479.486 662.725 478.913Q663.289 478.34 663.87 477.785Q664.451 477.229 665.048 476.691Q665.645 476.153 666.258 475.633Q666.871 475.113 667.499 474.612Q668.127 474.11 668.77 473.628Q669.413 473.146 670.07 472.682Q670.727 472.219 671.397 471.776Q672.067 471.333 672.751 470.91Q673.434 470.487 674.13 470.084Q674.825 469.682 675.533 469.3Q676.24 468.918 676.958 468.558Q677.677 468.198 678.406 467.859Q679.135 467.52 679.873 467.203Q680.612 466.887 681.36 466.592Q682.108 466.297 682.864 466.025Q683.62 465.753 684.384 465.503Q685.148 465.254 685.919 465.027Q686.69 464.8 687.468 464.597Q688.245 464.393 689.029 464.213Q689.812 464.033 690.6 463.876Q691.388 463.719 692.181 463.586C696.78 462.814 702.96 463.238 707.214 461.629C707.453 461.539 707.688 461.439 707.925 461.344Z"/>
	<path fill="#0C1114" d="M164.515 622.155L270.552 622.078C291.102 622.08 311.763 621.684 332.304 622.183Q332.618 644.656 332.639 667.131C339.087 667.112 345.544 667.024 351.992 667.083C351.931 683.658 352.54 700.639 351.489 717.169C344.912 716.13 337.777 716.547 331.118 716.569L301.757 716.627L192.919 716.429C185.619 712.028 180.171 706.504 178.192 697.873C176.597 690.917 178.147 683.564 182.01 677.618C183.923 674.673 186.306 672.346 188.896 670.006L164.46 669.711L164.515 622.155Z"/>
	<path fill="#FEFEFE" d="M168.171 625.512L329.089 625.412Q329.219 646.115 329.089 666.818L168.138 666.302L168.171 625.512Z"/>
	<path fill="#FEFEFE" d="M195.46 670.647C213.135 669.62 231.352 670.482 249.074 670.497L348.479 670.502L348.462 713.225L333.847 713.161L240.237 713.123C227.02 713.116 213.485 713.865 200.308 713.329C198.201 713.244 196.05 713.016 194.058 712.288C189.036 710.453 185.11 706.315 182.953 701.496C180.415 695.83 180.166 689.031 182.519 683.263C185.042 677.081 189.44 673.211 195.46 670.647Z"/>
</svg>
